# xmcd
#
# Track frame offsets: 
#        150
#        2985
#        19757
#        41375
#        58330
#        77598
#        96263
#        116007
#        135456
#        155885
#        176638
#        205432
#
# Disc length: 3027 seconds
#
# Revision: 1
# Processed by: cddbd v1.5.2PL0 Copyright (c) Steve Scherf et al.
# Submitted via: ExactAudioCopy v1.3
#
DISCID=a30bd10c
DTITLE=Aaron Aaron - Natural
DYEAR=2004
DGENRE=R&B
TTITLE0=DJ Flex (Intro)
TTITLE1=Natural
TTITLE2=Would U Mind?
TTITLE3=Everytime I See U
TTITLE4=Come With Me
TTITLE5=Just Another Day
TTITLE6=If U Only Knew
TTITLE7=Sexy Ghetto Girl
TTITLE8=Happily In Love
TTITLE9=Wedding Day
TTITLE10=Miracle
TTITLE11=Would U Mind? (After Dark Mix)
EXTD=
EXTT0=
EXTT1=
EXTT2=
EXTT3=
EXTT4=
EXTT5=
EXTT6=
EXTT7=
EXTT8=
EXTT9=
EXTT10=
EXTT11=
PLAYORDER=
